<?xml version="1.0" encoding="UTF-8" standalone="no"?>
<!DOCTYPE svg PUBLIC "-//W3C//DTD SVG 1.1//EN" "http://www.w3.org/Graphics/SVG/1.1/DTD/svg11.dtd">
<svg width="100%" height="100%" viewBox="0 0 567 355" version="1.1" xmlns="http://www.w3.org/2000/svg" xmlns:xlink="http://www.w3.org/1999/xlink" xml:space="preserve" xmlns:serif="http://www.serif.com/" style="fill-rule:evenodd;clip-rule:evenodd;stroke-linejoin:round;stroke-miterlimit:2;">
    <g transform="matrix(1.71269,0,0,0.671382,-47.11,147.761)">
        <g transform="matrix(3.83377e-17,1.59718,-0.626102,9.77993e-17,468.989,-580.675)">
            <path d="M357.939,209.478C357.939,191.241 343.133,176.435 324.896,176.435L258.809,176.435C240.572,176.435 225.766,191.241 225.766,209.478L225.766,275.564C225.766,293.802 240.572,308.608 258.809,308.608L324.896,308.608C343.133,308.608 357.939,293.802 357.939,275.564L357.939,209.478Z" style="fill:white;"/>
        </g>
        <g transform="matrix(3.83377e-17,1.59718,-0.626102,9.77993e-17,468.989,-264.017)">
            <path d="M357.939,209.478C357.939,191.241 343.133,176.435 324.896,176.435L258.809,176.435C240.572,176.435 225.766,191.241 225.766,209.478L225.766,275.564C225.766,293.802 240.572,308.608 258.809,308.608L324.896,308.608C343.133,308.608 357.939,293.802 357.939,275.564L357.939,209.478Z" style="fill:white;"/>
        </g>
        <g transform="matrix(3.83377e-17,1.59718,-0.626102,9.77993e-17,344.858,-580.675)">
            <path d="M357.939,209.478C357.939,191.241 343.133,176.435 324.896,176.435L258.809,176.435C240.572,176.435 225.766,191.241 225.766,209.478L225.766,275.564C225.766,293.802 240.572,308.608 258.809,308.608L324.896,308.608C343.133,308.608 357.939,293.802 357.939,275.564L357.939,209.478Z" style="fill:white;"/>
        </g>
        <g transform="matrix(3.83377e-17,1.59718,-0.626102,9.77993e-17,344.858,-264.017)">
            <path d="M357.939,209.478C357.939,191.241 343.133,176.435 324.896,176.435L258.809,176.435C240.572,176.435 225.766,191.241 225.766,209.478L225.766,275.564C225.766,293.802 240.572,308.608 258.809,308.608L324.896,308.608C343.133,308.608 357.939,293.802 357.939,275.564L357.939,209.478Z" style="fill:white;"/>
        </g>
        <g transform="matrix(3.83377e-17,1.59718,-0.626102,9.77993e-17,220.727,-580.675)">
            <path d="M357.939,209.478C357.939,191.241 343.133,176.435 324.896,176.435L258.809,176.435C240.572,176.435 225.766,191.241 225.766,209.478L225.766,275.564C225.766,293.802 240.572,308.608 258.809,308.608L324.896,308.608C343.133,308.608 357.939,293.802 357.939,275.564L357.939,209.478Z" style="fill:white;"/>
        </g>
        <g transform="matrix(3.83377e-17,1.59718,-0.626102,9.77993e-17,220.727,-264.017)">
            <path d="M357.939,209.478C357.939,191.241 343.133,176.435 324.896,176.435L258.809,176.435C240.572,176.435 225.766,191.241 225.766,209.478L225.766,275.564C225.766,293.802 240.572,308.608 258.809,308.608L324.896,308.608C343.133,308.608 357.939,293.802 357.939,275.564L357.939,209.478Z" style="fill:white;"/>
        </g>
    </g>
</svg>
