<?xml version="1.0" encoding="UTF-8" standalone="no"?><!DOCTYPE svg PUBLIC "-//W3C//DTD SVG 1.1//EN" "http://www.w3.org/Graphics/SVG/1.1/DTD/svg11.dtd"><svg width="100%" height="100%" viewBox="0 0 7917 1175" version="1.1" xmlns="http://www.w3.org/2000/svg" xmlns:xlink="http://www.w3.org/1999/xlink" xml:space="preserve" xmlns:serif="http://www.serif.com/" style="fill-rule:evenodd;clip-rule:evenodd;stroke-linejoin:round;stroke-miterlimit:2;"><rect x="0" y="595.699" width="1587.92" height="66.667" style="fill:url(#_Linear1);"/><rect x="2533.33" y="595.699" width="229.167" height="66.667" style="fill:url(#_Linear2);"/><rect x="2972.5" y="595.699" width="177.083" height="66.667" style="fill:url(#_Linear3);"/><rect x="3367.5" y="595.699" width="336.25" height="66.667" style="fill:url(#_Linear4);"/><rect x="3921.25" y="595.699" width="52.083" height="66.667" style="fill:url(#_Linear5);"/><rect x="4257.5" y="595.699" width="338.333" height="66.667" style="fill:url(#_Linear6);"/><path d="M5061.75,595.699l119.837,0l0,66.667l-68.398,-0c-4.386,-9.97 -9.532,-19.331 -15.35,-28.125c-10.058,-15.204 -22.061,-28.089 -36.089,-38.542Z" style="fill:url(#_Linear7);"/><rect x="5398.75" y="595.699" width="120.417" height="66.667" style="fill:url(#_Linear8);"/><path d="M5908.74,662.366l-172.907,-0l0,-66.667l197.093,0l-24.186,66.667Z" style="fill:url(#_Linear9);"/><path d="M6145.35,595.699l24.292,66.667l1747.02,-0l-0,-66.667l-1771.31,0Z" style="fill:url(#_Linear10);"/><g><path d="M2791.51,164.547l-161.133,-0l0,-119.531l473.438,-0l-0,119.531l-160.547,-0l-0,881.25l-151.758,-0l-0,-881.25Z" style="fill:#fff;fill-rule:nonzero;"/><path d="M3421.97,1054.59c-15.625,-0 -32.52,-1.27 -50.684,-3.809c-18.164,-2.539 -36.328,-7.91 -54.492,-16.113c-18.164,-8.203 -35.547,-19.824 -52.149,-34.863c-16.601,-15.039 -31.25,-34.864 -43.945,-59.473c-12.695,-24.609 -22.851,-54.98 -30.469,-91.113c-7.617,-36.133 -11.425,-79.199 -11.425,-129.199l-0,-354.493c-0,-50.39 3.906,-93.457 11.718,-129.199c7.813,-35.742 18.164,-65.82 31.055,-90.234c12.891,-24.414 27.734,-43.848 44.531,-58.301c16.797,-14.453 34.18,-25.488 52.149,-33.105c17.968,-7.618 35.84,-12.598 53.613,-14.942c17.773,-2.344 34.277,-3.516 49.512,-3.516c39.843,0 73.144,5.567 99.902,16.7c26.758,11.133 48.242,26.367 64.453,45.703c16.211,19.336 27.735,41.894 34.57,67.676c6.836,25.781 10.254,53.125 10.254,82.031c0,21.484 -1.074,41.308 -3.222,59.473c-2.149,18.164 -5.371,38.183 -9.668,60.058l-123.047,0l-0,-50.976c-0,-55.079 -6.055,-96.29 -18.164,-123.633c-12.11,-27.344 -29.883,-41.016 -53.32,-41.016c-14.063,0 -26.368,2.734 -36.915,8.203c-10.546,5.469 -19.335,14.746 -26.367,27.832c-7.031,13.086 -12.402,30.371 -16.113,51.856c-3.711,21.484 -5.566,48.242 -5.566,80.273l-0,457.031c-0,31.25 1.464,57.227 4.394,77.93c2.93,20.703 7.715,37.305 14.356,49.805c6.64,12.5 15.332,21.387 26.074,26.66c10.742,5.273 23.73,7.91 38.965,7.91c9.765,0 19.14,-2.246 28.125,-6.738c8.984,-4.492 16.894,-11.524 23.73,-21.094c6.836,-9.57 12.305,-21.68 16.406,-36.328c4.102,-14.648 6.153,-31.934 6.153,-51.856l-0,-97.851l138.867,-0l-0,92.578c-0,80.469 -18.359,139.844 -55.078,178.125c-36.719,38.281 -89.453,57.617 -158.203,58.008Z" style="fill:#fff;fill-rule:nonzero;"/><path d="M3956.94,1055.17c-11.719,-0 -25.391,-1.27 -41.016,-3.809c-15.625,-2.539 -31.738,-7.91 -48.34,-16.113c-16.601,-8.203 -32.91,-19.824 -48.926,-34.863c-16.015,-15.039 -30.371,-34.961 -43.066,-59.766c-12.695,-24.805 -22.949,-55.273 -30.762,-91.406c-7.812,-36.133 -11.719,-79.199 -11.719,-129.199l0,-354.493c0,-50.39 4.102,-93.457 12.305,-129.199c8.203,-35.742 19.141,-65.82 32.813,-90.234c13.672,-24.414 29.394,-43.848 47.168,-58.301c17.773,-14.453 36.23,-25.488 55.371,-33.105c19.14,-7.618 38.086,-12.598 56.836,-14.942c18.75,-2.344 36.132,-3.516 52.148,-3.516c40.625,0 74.902,5.567 102.832,16.7c27.93,11.133 50.586,26.367 67.969,45.703c17.383,19.336 29.883,41.894 37.5,67.676c7.617,25.781 11.426,53.125 11.426,82.031c-0,21.484 -1.27,41.308 -3.809,59.473c-2.539,18.164 -5.957,38.183 -10.254,60.058l-121.289,0l0,-47.461c0,-109.765 -29.492,-164.648 -88.476,-164.648c-16.016,-0 -29.883,2.734 -41.602,8.203c-11.719,5.469 -21.484,14.746 -29.297,27.832c-7.812,13.086 -13.574,30.371 -17.285,51.855c-3.711,21.485 -5.566,48.243 -5.566,80.274l-0,453.515c-0,31.25 1.855,57.227 5.566,77.93c3.711,20.703 9.375,37.305 16.992,49.805c7.617,12.5 17.188,21.387 28.711,26.66c11.523,5.273 25.293,7.91 41.309,7.91c16.797,0 31.25,-4.394 43.359,-13.183c12.109,-8.79 22.07,-20.801 29.883,-36.036c7.812,-15.234 13.574,-33.203 17.285,-53.906c3.711,-20.703 5.566,-43.164 5.566,-67.383l0,-130.664l-77.929,0l-0,-99.609l225.586,-0l-0,506.836l-100.782,-0l-16.406,-94.922c-19.14,37.109 -41.113,63.769 -65.918,79.98c-24.805,16.211 -54.199,24.317 -88.183,24.317Z" style="fill:#fff;fill-rule:nonzero;"/><path d="M4624.9,45.016l153.516,-0c22.656,-0 46.094,0.781 70.312,2.343c24.219,1.563 47.852,4.883 70.899,9.961c23.047,5.078 44.922,12.598 65.625,22.559c20.703,9.961 38.769,23.34 54.199,40.137c15.43,16.796 27.734,37.597 36.914,62.402c9.18,24.805 13.77,54.59 13.77,89.355l-0,48.633c-0,26.563 -3.809,50.977 -11.426,73.242c-7.617,22.266 -17.676,41.895 -30.176,58.887c-12.5,16.992 -26.758,31.055 -42.773,42.188c-16.016,11.132 -32.422,18.652 -49.219,22.558l-0,4.688c49.609,8.984 87.012,32.519 112.207,70.605c25.195,38.086 37.793,86.817 37.793,146.192l-0,50.976c-0,36.328 -4.004,67.871 -12.012,94.629c-8.008,26.758 -19.238,49.609 -33.691,68.555c-14.453,18.945 -31.641,34.472 -51.563,46.582c-19.922,12.109 -41.797,21.582 -65.625,28.418c-23.828,6.836 -49.218,11.523 -76.172,14.062c-26.953,2.539 -54.687,3.809 -83.203,3.809l-159.375,-0l0,-1000.78Zm178.125,428.32c20.313,-0 38.868,-2.442 55.664,-7.324c16.797,-4.883 31.153,-12.5 43.067,-22.852c11.914,-10.351 21.094,-23.828 27.539,-40.43c6.445,-16.601 9.668,-36.621 9.668,-60.058l-0,-41.016c-0,-23.437 -2.344,-44.14 -7.031,-62.109c-4.688,-17.969 -12.403,-33.203 -23.145,-45.703c-10.742,-12.5 -24.805,-21.973 -42.187,-28.418c-17.383,-6.446 -38.575,-9.668 -63.575,-9.668l-29.297,-0l0,317.578l29.297,-0Zm14.063,466.992c20.312,0 38.769,-2.637 55.371,-7.91c16.601,-5.274 30.859,-13.477 42.773,-24.609c11.914,-11.133 21.094,-25.293 27.539,-42.481c6.446,-17.187 9.668,-37.5 9.668,-60.937l0,-77.93c0,-23.438 -2.343,-44.238 -7.031,-62.402c-4.687,-18.165 -12.402,-33.399 -23.144,-45.704c-10.743,-12.304 -24.707,-21.679 -41.895,-28.125c-17.187,-6.445 -38.281,-9.668 -63.281,-9.668l-43.36,0l0,359.766l43.36,0Z" style="fill:#fff;fill-rule:nonzero;"/><path d="M5459.86,1054.59c-16.015,-0 -33.398,-1.27 -52.148,-3.809c-18.75,-2.539 -37.305,-7.91 -55.664,-16.113c-18.36,-8.203 -36.035,-19.824 -53.028,-34.863c-16.992,-15.039 -32.031,-34.864 -45.117,-59.473c-13.086,-24.609 -23.535,-54.98 -31.347,-91.113c-7.813,-36.133 -11.719,-79.199 -11.719,-129.199l-0,-354.493c-0,-50.39 4.004,-93.457 12.012,-129.199c8.007,-35.742 18.652,-65.82 31.933,-90.234c13.281,-24.414 28.418,-43.848 45.41,-58.301c16.992,-14.453 34.766,-25.488 53.321,-33.105c18.554,-7.618 37.011,-12.598 55.371,-14.942c18.359,-2.344 35.351,-3.516 50.976,-3.516c14.844,0 31.348,1.075 49.512,3.223c18.164,2.149 36.328,6.836 54.492,14.063c18.164,7.226 35.84,17.968 53.028,32.226c17.187,14.258 32.421,33.594 45.703,58.008c13.281,24.414 23.925,54.688 31.933,90.82c8.008,36.133 12.012,79.785 12.012,130.957l-0,354.493c-0,49.609 -4.102,92.285 -12.305,128.027c-8.203,35.742 -18.945,66.016 -32.226,90.82c-13.282,24.805 -28.614,44.727 -45.996,59.766c-17.383,15.039 -35.157,26.758 -53.321,35.156c-18.164,8.399 -36.23,13.965 -54.199,16.699c-17.969,2.735 -34.18,4.102 -48.633,4.102Zm0,-114.258c14.844,0 27.832,-2.539 38.965,-7.617c11.133,-5.078 20.313,-13.867 27.539,-26.367c7.227,-12.5 12.695,-29.004 16.406,-49.512c3.711,-20.508 5.567,-46.387 5.567,-77.637l-0,-455.273c-0,-32.031 -1.856,-58.789 -5.567,-80.274c-3.711,-21.484 -9.179,-38.769 -16.406,-51.855c-7.226,-13.086 -16.406,-22.363 -27.539,-27.832c-11.133,-5.469 -24.121,-8.203 -38.965,-8.203c-15.234,-0 -28.515,2.734 -39.843,8.203c-11.329,5.469 -20.704,14.746 -28.125,27.832c-7.422,13.086 -12.989,30.371 -16.7,51.855c-3.711,21.485 -5.566,48.243 -5.566,80.274l-0,455.273c-0,31.25 1.855,57.129 5.566,77.637c3.711,20.508 9.278,37.012 16.7,49.512c7.421,12.5 16.796,21.289 28.125,26.367c11.328,5.078 24.609,7.617 39.843,7.617Z" style="fill:#fff;fill-rule:nonzero;"/><path d="M5966.7,541.891l-182.812,-496.875l162.304,-0l93.164,319.921l5.86,0l93.164,-319.921l157.031,-0l-183.398,497.46l183.398,503.321l-156.445,-0l-94.922,-321.68l-9.961,0l-99.023,321.68l-151.172,-0l182.812,-503.906Z" style="fill:#fff;fill-rule:nonzero;"/></g><path id="front" d="M2044.17,831.626l-422.912,-328.52l-0,343.105l422.912,328.521l-0,-343.106Z" style="fill:#d8d8d8;"/><path id="side" d="M2077.5,831.626l422.604,-328.52l0,343.105l-422.604,328.521l0,-343.106Z" style="fill:#9d9d9d;"/><path id="front1" serif:id="front" d="M2044.17,656.874l-422.912,-328.52l-0,143.085l422.912,328.52l-0,-143.085Z" style="fill:#d8d8d8;"/><path id="side1" serif:id="side" d="M2077.5,656.874l422.604,-328.52l0,143.085l-422.604,328.52l0,-143.085Z" style="fill:#9d9d9d;"/><path id="top" d="M2060.68,0l-439.202,294.856l439.202,328.353l439.202,-328.353l-439.202,-294.856Z" style="fill:#fff;"/><defs><linearGradient id="_Linear1" x1="0" y1="0" x2="1" y2="0" gradientUnits="userSpaceOnUse" gradientTransform="matrix(7916.67,0,0,66.6667,0,629.032)"><stop offset="0" style="stop-color:#fff;stop-opacity:0"/><stop offset="0.15" style="stop-color:#fff;stop-opacity:1"/><stop offset="0.85" style="stop-color:#fff;stop-opacity:1"/><stop offset="1" style="stop-color:#fff;stop-opacity:0"/></linearGradient><linearGradient id="_Linear2" x1="0" y1="0" x2="1" y2="0" gradientUnits="userSpaceOnUse" gradientTransform="matrix(7916.67,0,0,66.6667,0,629.032)"><stop offset="0" style="stop-color:#fff;stop-opacity:0"/><stop offset="0.15" style="stop-color:#fff;stop-opacity:1"/><stop offset="0.85" style="stop-color:#fff;stop-opacity:1"/><stop offset="1" style="stop-color:#fff;stop-opacity:0"/></linearGradient><linearGradient id="_Linear3" x1="0" y1="0" x2="1" y2="0" gradientUnits="userSpaceOnUse" gradientTransform="matrix(7916.67,0,0,66.6667,0,629.032)"><stop offset="0" style="stop-color:#fff;stop-opacity:0"/><stop offset="0.15" style="stop-color:#fff;stop-opacity:1"/><stop offset="0.85" style="stop-color:#fff;stop-opacity:1"/><stop offset="1" style="stop-color:#fff;stop-opacity:0"/></linearGradient><linearGradient id="_Linear4" x1="0" y1="0" x2="1" y2="0" gradientUnits="userSpaceOnUse" gradientTransform="matrix(7916.67,0,0,66.6667,0,629.032)"><stop offset="0" style="stop-color:#fff;stop-opacity:0"/><stop offset="0.15" style="stop-color:#fff;stop-opacity:1"/><stop offset="0.85" style="stop-color:#fff;stop-opacity:1"/><stop offset="1" style="stop-color:#fff;stop-opacity:0"/></linearGradient><linearGradient id="_Linear5" x1="0" y1="0" x2="1" y2="0" gradientUnits="userSpaceOnUse" gradientTransform="matrix(7916.67,0,0,66.6667,0,629.032)"><stop offset="0" style="stop-color:#fff;stop-opacity:0"/><stop offset="0.15" style="stop-color:#fff;stop-opacity:1"/><stop offset="0.85" style="stop-color:#fff;stop-opacity:1"/><stop offset="1" style="stop-color:#fff;stop-opacity:0"/></linearGradient><linearGradient id="_Linear6" x1="0" y1="0" x2="1" y2="0" gradientUnits="userSpaceOnUse" gradientTransform="matrix(7916.67,0,0,66.6667,0,629.032)"><stop offset="0" style="stop-color:#fff;stop-opacity:0"/><stop offset="0.15" style="stop-color:#fff;stop-opacity:1"/><stop offset="0.85" style="stop-color:#fff;stop-opacity:1"/><stop offset="1" style="stop-color:#fff;stop-opacity:0"/></linearGradient><linearGradient id="_Linear7" x1="0" y1="0" x2="1" y2="0" gradientUnits="userSpaceOnUse" gradientTransform="matrix(7916.67,0,0,66.6667,29.0852,629.032)"><stop offset="0" style="stop-color:#fff;stop-opacity:0"/><stop offset="0.15" style="stop-color:#fff;stop-opacity:1"/><stop offset="0.85" style="stop-color:#fff;stop-opacity:1"/><stop offset="1" style="stop-color:#fff;stop-opacity:0"/></linearGradient><linearGradient id="_Linear8" x1="0" y1="0" x2="1" y2="0" gradientUnits="userSpaceOnUse" gradientTransform="matrix(7916.67,0,0,66.6667,0,629.032)"><stop offset="0" style="stop-color:#fff;stop-opacity:0"/><stop offset="0.15" style="stop-color:#fff;stop-opacity:1"/><stop offset="0.85" style="stop-color:#fff;stop-opacity:1"/><stop offset="1" style="stop-color:#fff;stop-opacity:0"/></linearGradient><linearGradient id="_Linear9" x1="0" y1="0" x2="1" y2="0" gradientUnits="userSpaceOnUse" gradientTransform="matrix(7916.67,0,0,66.6667,0,629.032)"><stop offset="0" style="stop-color:#fff;stop-opacity:0"/><stop offset="0.15" style="stop-color:#fff;stop-opacity:1"/><stop offset="0.85" style="stop-color:#fff;stop-opacity:1"/><stop offset="1" style="stop-color:#fff;stop-opacity:0"/></linearGradient><linearGradient id="_Linear10" x1="0" y1="0" x2="1" y2="0" gradientUnits="userSpaceOnUse" gradientTransform="matrix(7916.67,0,0,66.6667,0,629.032)"><stop offset="0" style="stop-color:#fff;stop-opacity:0"/><stop offset="0.15" style="stop-color:#fff;stop-opacity:1"/><stop offset="0.85" style="stop-color:#fff;stop-opacity:1"/><stop offset="1" style="stop-color:#fff;stop-opacity:0"/></linearGradient></defs></svg>